<svg width="500" height="377" viewBox="0 0 500 377" fill="none" xmlns="http://www.w3.org/2000/svg">
<path d="M482.645 136.83C479.515 136.768 476.423 137.52 473.671 139.013C470.92 140.506 468.603 142.688 466.949 145.345C465.294 148.003 464.359 151.044 464.234 154.172C464.109 157.3 464.798 160.407 466.235 163.188L387.11 241.517C394.538 223.817 398.351 204.811 398.324 185.616C398.324 184.167 398.324 182.731 398.246 181.295L387.084 192.339C385.495 224.387 372.422 254.791 350.256 277.992L344.434 283.749C335.531 292.019 325.549 299.045 314.76 304.636L295.505 324.427C299.656 323.157 303.72 321.712 307.698 320.093L307.985 319.976C324.474 313.219 339.578 303.483 352.541 291.255L352.645 291.164C354.386 289.545 356.066 287.883 357.685 286.177L357.776 286.086L474.029 171.021C476.478 172.283 479.185 172.962 481.94 173.005C486.674 173 491.217 171.138 494.593 167.819C497.97 164.501 499.91 159.99 499.997 155.257C500.084 150.524 498.311 145.945 495.06 142.505C491.808 139.064 487.336 137.036 482.606 136.856L482.645 136.83ZM482.175 161.921C480.786 161.895 479.436 161.458 478.296 160.665C477.156 159.872 476.276 158.758 475.769 157.465C475.261 156.172 475.149 154.758 475.445 153.401C475.741 152.044 476.433 150.805 477.434 149.841C478.434 148.878 479.697 148.232 481.064 147.987C482.432 147.741 483.841 147.906 485.114 148.461C486.387 149.016 487.467 149.937 488.218 151.106C488.968 152.275 489.355 153.64 489.329 155.029C489.291 156.89 488.517 158.661 487.176 159.953C485.835 161.245 484.037 161.953 482.175 161.921Z" fill="black"/>
<path d="M381.823 147.862L390.661 139.115C384.455 120.909 374.706 104.112 361.977 89.6919C349.248 75.2715 333.791 63.5131 316.497 55.0944L336.928 34.2068C340.786 36.089 345.189 36.532 349.344 35.4559C353.499 34.3798 357.134 31.8554 359.593 28.3372C362.053 24.8191 363.175 20.5385 362.758 16.2663C362.341 11.9941 360.413 8.01114 357.32 5.03468C354.227 2.05822 350.173 0.283896 345.888 0.0312505C341.603 -0.221396 337.369 1.06423 333.947 3.65661C330.526 6.249 328.143 9.97775 327.227 14.1714C326.311 18.365 326.922 22.7478 328.951 26.5306L305.662 50.3555C292.928 45.3921 279.551 42.271 265.936 41.0866L255.675 51.6219C269.817 51.8665 283.831 54.3607 297.189 59.0109L269.526 87.2353H284.996L308.312 63.3842C325.907 71.3681 341.579 83.0445 354.263 97.6208C366.947 112.197 376.347 129.332 381.823 147.862ZM344.891 10.8779C346.28 10.8779 347.638 11.2898 348.793 12.0615C349.948 12.8333 350.848 13.9302 351.38 15.2136C351.912 16.497 352.051 17.9091 351.78 19.2716C351.509 20.634 350.84 21.8855 349.857 22.8677C348.875 23.85 347.624 24.5189 346.261 24.7899C344.899 25.0609 343.487 24.9218 342.203 24.3902C340.92 23.8586 339.823 22.9584 339.051 21.8034C338.28 20.6484 337.868 19.2905 337.868 17.9014C337.868 16.0386 338.608 14.2522 339.925 12.935C341.242 11.6178 343.028 10.8779 344.891 10.8779Z" fill="black"/>
<path d="M157.02 92.2615L157.477 91.8046L160.571 88.7498C170.04 79.7036 180.774 72.0825 192.437 66.1258L211.563 46.5698C189.441 53.2092 169.234 65.0545 152.633 81.1127L150.022 83.6584L26.3804 206.021C22.5409 204.049 18.1231 203.513 13.9235 204.51C9.72381 205.507 6.01855 207.972 3.47567 211.46C0.932777 214.948 -0.280444 219.23 0.0546815 223.533C0.389807 227.836 2.25121 231.879 5.30341 234.931C8.3556 237.983 12.3977 239.844 16.7012 240.179C21.0046 240.515 25.2862 239.301 28.7741 236.758C32.262 234.216 34.7268 230.51 35.7241 226.311C36.7214 222.111 36.1856 217.693 34.2133 213.854L119.317 129.585C111.87 147.321 108.044 166.367 108.064 185.603C108.064 186.909 108.064 188.214 108.064 189.52L119.252 178.436C120.983 146.084 134.404 115.461 157.02 92.2615ZM17.9731 229.128C16.5838 229.102 15.2335 228.664 14.093 227.87C12.9525 227.077 12.073 225.962 11.566 224.669C11.0589 223.375 10.947 221.96 11.2444 220.602C11.5418 219.245 12.2352 218.006 13.2368 217.043C14.2383 216.08 15.5031 215.436 16.871 215.191C18.2389 214.947 19.6486 215.114 20.9215 215.672C22.1944 216.229 23.2735 217.151 24.0221 218.322C24.7708 219.492 25.1553 220.859 25.1272 222.248C25.1102 223.17 24.9116 224.079 24.5427 224.924C24.1738 225.769 23.6418 226.533 22.9773 227.172C22.3128 227.811 21.5287 228.313 20.67 228.648C19.8113 228.984 18.8949 229.147 17.9731 229.128Z" fill="black"/>
<path d="M208.169 311.882L230.949 288.501L223.025 280.785L197.124 307.365C179.784 299.341 164.35 287.721 151.844 273.275C139.339 258.83 130.049 241.89 124.592 223.579L115.767 232.313C128.219 268.698 154.535 298.693 188.991 315.772L163.756 341.673C159.883 339.774 155.458 339.321 151.28 340.397C147.102 341.472 143.446 344.005 140.971 347.539C138.496 351.073 137.365 355.374 137.782 359.668C138.199 363.962 140.136 367.966 143.245 370.957C146.354 373.948 150.429 375.731 154.735 375.982C159.042 376.234 163.297 374.939 166.733 372.33C170.169 369.721 172.56 365.97 173.474 361.754C174.388 357.538 173.766 353.134 171.72 349.336L199.748 320.616C212.826 325.805 226.592 329.055 240.61 330.263L250.871 319.728C236.303 319.466 221.878 316.816 208.169 311.882ZM155.806 364.884C154.417 364.884 153.059 364.472 151.904 363.701C150.749 362.929 149.849 361.832 149.317 360.549C148.785 359.265 148.646 357.853 148.917 356.491C149.188 355.128 149.857 353.877 150.84 352.895C151.822 351.912 153.073 351.243 154.436 350.972C155.798 350.701 157.21 350.84 158.494 351.372C159.777 351.904 160.874 352.804 161.646 353.959C162.417 355.114 162.829 356.472 162.829 357.861C162.826 359.722 162.085 361.507 160.768 362.823C159.452 364.14 157.668 364.881 155.806 364.884Z" fill="black"/>
<path d="M127.229 204.833L187.124 249.454L242.894 290.981L243.665 291.556H244.513L245.27 289.859L291.967 185.225L292.202 184.715L292.711 183.567L349.944 55.2643L127.229 204.833ZM291.406 182.3L243.599 289.35L188.221 248.096L130.166 204.859L346.027 59.9901L291.406 182.3Z" fill="#350003"/>
<path d="M346 59.9901L345.987 60.0293L188.22 248.136L130.166 204.898L346 59.9901Z" fill="url(#paint0_linear_919_4768)"/>
<path d="M345.987 60.0289L291.405 182.3L243.599 289.388L188.22 248.135L345.987 60.0289Z" fill="url(#paint1_linear_919_4768)"/>
<path style="mix-blend-mode:screen" d="M329.683 79.3502C323.913 86.5433 318.064 93.7104 312.255 100.799L294.683 122.131C282.934 136.347 271.184 150.46 259.344 164.624C247.503 178.788 235.623 192.835 223.691 206.869L205.767 227.901C199.735 234.872 193.756 241.882 187.699 248.788C193.469 241.608 199.318 234.493 205.127 227.339L222.686 206.008C234.435 191.791 246.25 177.679 258.038 163.514C269.827 149.35 281.746 135.303 293.691 121.269L311.615 100.238C317.633 93.2927 323.612 86.2953 329.683 79.3502Z" fill="url(#paint2_linear_919_4768)"/>
<path d="M292.698 183.567L291.392 182.261L243.585 289.31L242.867 290.903L243.638 291.477H350.073L374.525 263.671L292.698 183.567ZM349.303 289.859H245.243L291.953 185.225L293.05 186.295L372.136 263.827L349.303 289.859Z" fill="#4C0D27"/>
<path d="M372.188 263.827L349.29 289.859H349.225L293.05 186.295L372.188 263.827Z" fill="url(#paint3_linear_919_4768)"/>
<path d="M349.225 289.859H245.257L291.954 185.225L293.05 186.295L349.225 289.859Z" fill="url(#paint4_linear_919_4768)"/>
<path style="mix-blend-mode:screen" d="M296.627 192.679C300.892 199.885 305.065 207.148 309.147 214.467C313.229 221.787 317.254 229.123 321.222 236.478C325.139 243.854 329.134 251.23 332.972 258.671C336.81 266.112 345.57 282.339 349.264 289.859C344.995 282.652 335.883 266.608 331.797 259.297C327.711 251.987 323.69 244.65 319.708 237.287C315.726 229.924 311.797 222.522 307.959 215.094C304.121 207.666 300.335 200.198 296.627 192.679Z" fill="url(#paint5_linear_919_4768)"/>
<path d="M291.954 185.225L247.842 289.859H245.257L291.954 185.225Z" fill="url(#paint6_linear_919_4768)"/>
<defs>
<linearGradient id="paint0_linear_919_4768" x1="130.166" y1="154.063" x2="346" y2="154.063" gradientUnits="userSpaceOnUse">
<stop stop-color="#FF0000"/>
<stop offset="0.11" stop-color="#F90000"/>
<stop offset="0.27" stop-color="#E80000"/>
<stop offset="0.44" stop-color="#CC0000"/>
<stop offset="0.63" stop-color="#A50000"/>
<stop offset="0.83" stop-color="#730001"/>
<stop offset="1" stop-color="#450001"/>
</linearGradient>
<linearGradient id="paint1_linear_919_4768" x1="215.466" y1="269.467" x2="346.967" y2="60.3161" gradientUnits="userSpaceOnUse">
<stop stop-color="#FF0000"/>
<stop offset="0.11" stop-color="#F90000"/>
<stop offset="0.27" stop-color="#E80000"/>
<stop offset="0.44" stop-color="#CC0000"/>
<stop offset="0.63" stop-color="#A50000"/>
<stop offset="0.83" stop-color="#730001"/>
<stop offset="1" stop-color="#450001"/>
</linearGradient>
<linearGradient id="paint2_linear_919_4768" x1="187.699" y1="164.089" x2="329.683" y2="164.089" gradientUnits="userSpaceOnUse">
<stop/>
<stop offset="1" stop-color="white" stop-opacity="0.5"/>
</linearGradient>
<linearGradient id="paint3_linear_919_4768" x1="361.327" y1="277.626" x2="291.862" y2="190.029" gradientUnits="userSpaceOnUse">
<stop stop-color="#EF0000"/>
<stop offset="1" stop-color="#5D0F28"/>
</linearGradient>
<linearGradient id="paint4_linear_919_4768" x1="297.228" y1="289.558" x2="294.499" y2="186.935" gradientUnits="userSpaceOnUse">
<stop stop-color="#FF0000"/>
<stop offset="1" stop-color="#5D0F28"/>
</linearGradient>
<linearGradient id="paint5_linear_919_4768" x1="296.627" y1="241.269" x2="349.303" y2="241.269" gradientUnits="userSpaceOnUse">
<stop stop-color="white" stop-opacity="0.5"/>
<stop offset="1"/>
</linearGradient>
<linearGradient id="paint6_linear_919_4768" x1="305.883" y1="269.793" x2="256.04" y2="226.673" gradientUnits="userSpaceOnUse">
<stop stop-color="#FF0000"/>
<stop offset="1" stop-color="#5D0F28"/>
</linearGradient>
</defs>
</svg>
